<mxfile host="app.diagrams.net" modified="2023-11-12T05:18:14.405Z" agent="Mozilla/5.0 (Windows NT 10.0; Win64; x64) AppleWebKit/537.36 (KHTML, like Gecko) Chrome/119.0.0.0 Safari/537.36" etag="frT3EffYC-aZ0v6m4kla" version="22.1.0" type="device">
  <diagram name="Page-1" id="SRYooDyTZpxaBlOdZdFU">
    <mxGraphModel dx="765" dy="416" grid="1" gridSize="10" guides="1" tooltips="1" connect="1" arrows="1" fold="1" page="1" pageScale="1" pageWidth="850" pageHeight="1100" math="0" shadow="0">
      <root>
        <mxCell id="0" />
        <mxCell id="1" parent="0" />
        <mxCell id="Ze0_Xx8WEWg4EW2CNT9O-9" style="edgeStyle=orthogonalEdgeStyle;rounded=0;orthogonalLoop=1;jettySize=auto;html=1;entryX=0.5;entryY=0;entryDx=0;entryDy=0;" edge="1" parent="1" source="Ze0_Xx8WEWg4EW2CNT9O-4" target="Ze0_Xx8WEWg4EW2CNT9O-6">
          <mxGeometry relative="1" as="geometry" />
        </mxCell>
        <mxCell id="Ze0_Xx8WEWg4EW2CNT9O-4" value="BEGIN" style="ellipse;whiteSpace=wrap;html=1;" vertex="1" parent="1">
          <mxGeometry x="360" y="30" width="120" height="50" as="geometry" />
        </mxCell>
        <mxCell id="Ze0_Xx8WEWg4EW2CNT9O-5" value="END" style="ellipse;whiteSpace=wrap;html=1;" vertex="1" parent="1">
          <mxGeometry x="360" y="360" width="120" height="50" as="geometry" />
        </mxCell>
        <mxCell id="Ze0_Xx8WEWg4EW2CNT9O-10" style="edgeStyle=orthogonalEdgeStyle;rounded=0;orthogonalLoop=1;jettySize=auto;html=1;entryX=0.5;entryY=0;entryDx=0;entryDy=0;" edge="1" parent="1" source="Ze0_Xx8WEWg4EW2CNT9O-6" target="Ze0_Xx8WEWg4EW2CNT9O-7">
          <mxGeometry relative="1" as="geometry" />
        </mxCell>
        <mxCell id="Ze0_Xx8WEWg4EW2CNT9O-6" value="Input C" style="shape=parallelogram;perimeter=parallelogramPerimeter;whiteSpace=wrap;html=1;fixedSize=1;" vertex="1" parent="1">
          <mxGeometry x="360" y="120" width="120" height="30" as="geometry" />
        </mxCell>
        <mxCell id="Ze0_Xx8WEWg4EW2CNT9O-11" style="edgeStyle=orthogonalEdgeStyle;rounded=0;orthogonalLoop=1;jettySize=auto;html=1;entryX=0.5;entryY=0;entryDx=0;entryDy=0;" edge="1" parent="1" source="Ze0_Xx8WEWg4EW2CNT9O-7" target="Ze0_Xx8WEWg4EW2CNT9O-8">
          <mxGeometry relative="1" as="geometry" />
        </mxCell>
        <mxCell id="Ze0_Xx8WEWg4EW2CNT9O-7" value="F = ( 9 * C ) / 5 + 32" style="whiteSpace=wrap;html=1;" vertex="1" parent="1">
          <mxGeometry x="360" y="200" width="120" height="40" as="geometry" />
        </mxCell>
        <mxCell id="Ze0_Xx8WEWg4EW2CNT9O-12" style="edgeStyle=orthogonalEdgeStyle;rounded=0;orthogonalLoop=1;jettySize=auto;html=1;entryX=0.5;entryY=0;entryDx=0;entryDy=0;" edge="1" parent="1" source="Ze0_Xx8WEWg4EW2CNT9O-8" target="Ze0_Xx8WEWg4EW2CNT9O-5">
          <mxGeometry relative="1" as="geometry" />
        </mxCell>
        <mxCell id="Ze0_Xx8WEWg4EW2CNT9O-8" value="Display F" style="shape=parallelogram;perimeter=parallelogramPerimeter;whiteSpace=wrap;html=1;fixedSize=1;" vertex="1" parent="1">
          <mxGeometry x="360" y="290" width="120" height="30" as="geometry" />
        </mxCell>
      </root>
    </mxGraphModel>
  </diagram>
</mxfile>
